<mxfile host="app.diagrams.net" modified="2022-09-16T15:05:08.697Z" agent="5.0 (Macintosh; Intel Mac OS X 10_15_7) AppleWebKit/537.36 (KHTML, like Gecko) Chrome/103.0.5060.134 Safari/537.36 OPR/89.0.4447.83" etag="TOGratGpMkfJZ-qGqPn1" version="20.2.3" type="github">
  <diagram id="o_whcieWj3dK7pMsTQpq" name="Page-1">
    <mxGraphModel dx="1320" dy="893" grid="1" gridSize="10" guides="1" tooltips="1" connect="1" arrows="1" fold="1" page="1" pageScale="1" pageWidth="827" pageHeight="1169" math="0" shadow="0">
      <root>
        <mxCell id="0" />
        <mxCell id="1" parent="0" />
        <mxCell id="nS34pzxsXZP1HBttohk6-1" value="Id: 3485848345760292&lt;br style=&quot;font-size: 18px;&quot;&gt;&lt;br style=&quot;font-size: 18px;&quot;&gt;dunders...&lt;br style=&quot;font-size: 18px;&quot;&gt;&lt;br style=&quot;font-size: 18px;&quot;&gt;Type: function" style="rounded=0;whiteSpace=wrap;html=1;fillColor=#f5f5f5;fontColor=#333333;strokeColor=#666666;sketch=1;fontFamily=Courier New;fontSize=18;align=left;fontStyle=1" vertex="1" parent="1">
          <mxGeometry x="500" y="100" width="230" height="130" as="geometry" />
        </mxCell>
        <mxCell id="nS34pzxsXZP1HBttohk6-2" value="is_odd" style="text;html=1;strokeColor=none;fillColor=none;align=center;verticalAlign=middle;whiteSpace=wrap;rounded=0;sketch=1;fontFamily=Comic Sans MS;fontSize=18;" vertex="1" parent="1">
          <mxGeometry x="343" y="122" width="60" height="30" as="geometry" />
        </mxCell>
        <mxCell id="nS34pzxsXZP1HBttohk6-5" value="" style="endArrow=classic;html=1;rounded=0;fontFamily=Comic Sans MS;fontSize=18;strokeWidth=2;" edge="1" parent="1">
          <mxGeometry width="50" height="50" relative="1" as="geometry">
            <mxPoint x="420" y="139.5" as="sourcePoint" />
            <mxPoint x="480" y="139.5" as="targetPoint" />
          </mxGeometry>
        </mxCell>
        <mxCell id="nS34pzxsXZP1HBttohk6-7" value="&lt;font color=&quot;#994c00&quot;&gt;def&lt;/font&gt; &lt;font color=&quot;#004c99&quot;&gt;is_odd&lt;/font&gt;&lt;font color=&quot;#1a1a1a&quot;&gt;(num):&lt;/font&gt;&lt;br&gt;&amp;nbsp; &amp;nbsp; &lt;font color=&quot;#994c00&quot;&gt;return&lt;/font&gt; &lt;font color=&quot;#1a1a1a&quot;&gt;num % 2&lt;/font&gt;" style="whiteSpace=wrap;html=1;sketch=0;fontFamily=Courier New;fontSize=18;fillColor=#eeeeee;fontStyle=1;strokeColor=none;" vertex="1" parent="1">
          <mxGeometry x="40" y="136" width="210" height="58" as="geometry" />
        </mxCell>
        <mxCell id="nS34pzxsXZP1HBttohk6-8" value="" style="shape=curlyBracket;whiteSpace=wrap;html=1;rounded=1;flipH=1;sketch=0;fontFamily=Courier New;fontSize=18;fontColor=#004C99;fillColor=none;" vertex="1" parent="1">
          <mxGeometry x="290" y="90" width="20" height="150" as="geometry" />
        </mxCell>
      </root>
    </mxGraphModel>
  </diagram>
</mxfile>
